<svg>
  <symbol id="logo-white" width="305" height="40" viewBox="0 0 305 40" fill="none" xmlns="http://www.w3.org/2000/svg">
    <path d="M290.416 40C287.362 40 284.748 39.4075 282.574 38.2226C280.4 37.0257 278.732 35.3621 277.572 33.2316C276.412 31.0892 275.831 28.6056 275.831 25.781C275.831 22.9563 276.412 20.4788 277.572 18.3483C278.732 16.2059 280.4 14.5422 282.574 13.3573C284.748 12.1604 287.362 11.562 290.416 11.562C293.469 11.562 296.083 12.1604 298.257 13.3573C300.432 14.5422 302.099 16.2059 303.259 18.3483C304.42 20.4788 305 22.9563 305 25.781C305 28.6056 304.42 31.0892 303.259 33.2316C302.099 35.3621 300.432 37.0257 298.257 38.2226C296.083 39.4075 293.469 40 290.416 40ZM290.489 32.675C291.344 32.675 292.083 32.3938 292.706 31.8312C293.329 31.2687 293.811 30.4668 294.153 29.4255C294.495 28.3842 294.666 27.1454 294.666 25.7092C294.666 24.2609 294.495 23.0221 294.153 21.9928C293.811 20.9515 293.329 20.1496 292.706 19.5871C292.083 19.0245 291.344 18.7433 290.489 18.7433C289.585 18.7433 288.809 19.0245 288.162 19.5871C287.515 20.1496 287.02 20.9515 286.678 21.9928C286.336 23.0221 286.165 24.2609 286.165 25.7092C286.165 27.1454 286.336 28.3842 286.678 29.4255C287.02 30.4668 287.515 31.2687 288.162 31.8312C288.809 32.3938 289.585 32.675 290.489 32.675Z" fill="white"/>
    <path d="M257.92 40C254.916 40 252.326 39.4375 250.152 38.3124C247.99 37.1753 246.323 35.5476 245.15 33.4291C243.99 31.2986 243.409 28.7493 243.409 25.781C243.409 22.9324 243.996 20.4429 245.168 18.3124C246.341 16.1819 247.996 14.5242 250.133 13.3393C252.271 12.1544 254.793 11.562 257.7 11.562C259.826 11.562 261.75 11.8851 263.472 12.5314C265.194 13.1777 266.666 14.1173 267.888 15.3501C269.109 16.5709 270.05 18.0551 270.709 19.8025C271.369 21.55 271.699 23.5189 271.699 25.7092V28.0072H246.561V22.5494H262.391C262.379 21.7594 262.171 21.0652 261.768 20.4668C261.377 19.8564 260.846 19.3836 260.174 19.0485C259.514 18.7014 258.763 18.5278 257.92 18.5278C257.102 18.5278 256.351 18.7014 255.667 19.0485C254.983 19.3836 254.433 19.8504 254.018 20.4488C253.615 21.0473 253.401 21.7475 253.376 22.5494V28.4381C253.376 29.3238 253.566 30.1137 253.944 30.8079C254.323 31.5021 254.867 32.0467 255.575 32.4417C256.284 32.8366 257.139 33.0341 258.14 33.0341C258.836 33.0341 259.472 32.9384 260.046 32.7469C260.632 32.5554 261.133 32.2801 261.548 31.921C261.963 31.55 262.269 31.1071 262.464 30.5925H271.699C271.381 32.5075 270.63 34.1712 269.445 35.5835C268.26 36.9838 266.69 38.073 264.736 38.851C262.794 39.617 260.522 40 257.92 40Z" fill="white"/>
    <path d="M220.336 39.8564C218.333 39.8564 216.488 39.3417 214.803 38.3124C213.129 37.2831 211.786 35.7211 210.772 33.6266C209.77 31.532 209.269 28.8929 209.269 25.7092C209.269 22.3818 209.795 19.6769 210.845 17.5943C211.908 15.5117 213.276 13.9857 214.949 13.0162C216.635 12.0467 218.406 11.562 220.263 11.562C221.655 11.562 222.877 11.8014 223.927 12.2801C224.978 12.7469 225.857 13.3753 226.565 14.1652C227.274 14.9432 227.811 15.799 228.178 16.7325H228.324V2.72894H238.438V39.4973H228.398V34.9731H228.178C227.787 35.9067 227.225 36.7445 226.492 37.4866C225.771 38.2167 224.892 38.7972 223.854 39.228C222.828 39.6469 221.655 39.8564 220.336 39.8564ZM224.074 32.2442C225.002 32.2442 225.796 31.9809 226.455 31.4542C227.127 30.9156 227.64 30.1616 227.995 29.1921C228.361 28.2107 228.544 27.0497 228.544 25.7092C228.544 24.3447 228.361 23.1778 227.995 22.2083C227.64 21.2268 227.127 20.4788 226.455 19.9641C225.796 19.4375 225.002 19.1742 224.074 19.1742C223.145 19.1742 222.351 19.4375 221.692 19.9641C221.044 20.4788 220.544 21.2268 220.189 22.2083C219.847 23.1778 219.676 24.3447 219.676 25.7092C219.676 27.0736 219.847 28.2466 220.189 29.228C220.544 30.1975 221.044 30.9456 221.692 31.4722C222.351 31.9869 223.145 32.2442 224.074 32.2442Z" fill="white"/>
    <path d="M193.85 39.4973V11.921H203.964V39.4973H193.85ZM198.907 9.04847C197.539 9.04847 196.366 8.60562 195.389 7.71993C194.412 6.83423 193.923 5.769 193.923 4.52424C193.923 3.27947 194.412 2.21424 195.389 1.32854C196.366 0.442848 197.539 0 198.907 0C200.287 0 201.46 0.442848 202.425 1.32854C203.402 2.21424 203.891 3.27947 203.891 4.52424C203.891 5.769 203.402 6.83423 202.425 7.71993C201.46 8.60562 200.287 9.04847 198.907 9.04847Z" fill="white"/>
    <path d="M189.942 11.921L180.488 39.4973H168.761L159.307 11.921H169.934L174.478 30.1616H174.771L179.315 11.921H189.942Z" fill="white"/>
    <path d="M127.178 10.772V2.72894H159.792V10.772H148.505V39.4973H138.465V10.772H127.178Z" fill="white"/>
    <path d="M121.3 21.113V28.5816H103.711V21.113H121.3Z" fill="white"/>
    <path d="M86.5421 27.4327V11.921H96.6558V39.4973H87.0551V34.2549H86.7619C86.1512 36.0144 85.0824 37.3908 83.5556 38.3842C82.0288 39.3657 80.2149 39.8564 78.1139 39.8564C76.1474 39.8564 74.4251 39.4135 72.9471 38.5278C71.4814 37.6421 70.3393 36.4213 69.5209 34.8654C68.7147 33.3094 68.3055 31.526 68.2933 29.5153V11.921H78.4071V27.4327C78.4193 28.7971 78.7735 29.8684 79.4698 30.6463C80.1782 31.4243 81.1676 31.8133 82.4379 31.8133C83.2808 31.8133 84.0075 31.6397 84.6183 31.2926C85.2412 30.9336 85.7176 30.4309 86.0474 29.7846C86.3894 29.1263 86.5543 28.3423 86.5421 27.4327Z" fill="white"/>
    <path d="M48.573 40C45.5193 40 42.9054 39.4075 40.7312 38.2226C38.5569 37.0257 36.8896 35.3621 35.7292 33.2316C34.5688 31.0892 33.9886 28.6056 33.9886 25.781C33.9886 22.9563 34.5688 20.4788 35.7292 18.3483C36.8896 16.2059 38.5569 14.5422 40.7312 13.3573C42.9054 12.1604 45.5193 11.562 48.573 11.562C51.6267 11.562 54.2406 12.1604 56.4148 13.3573C58.589 14.5422 60.2563 16.2059 61.4167 18.3483C62.5771 20.4788 63.1573 22.9563 63.1573 25.781C63.1573 28.6056 62.5771 31.0892 61.4167 33.2316C60.2563 35.3621 58.589 37.0257 56.4148 38.2226C54.2406 39.4075 51.6267 40 48.573 40Z" fill="white"/>
    <path d="M0 2.72894H11.3597L18.6885 17.6661H18.9816L26.3104 2.72894H37.6701L23.8919 27.9354V39.4973H13.7782V27.9354L0 2.72894Z" fill="white"/>
    <path d="M58.75 26.25L43.75 34.9103V17.5897L58.75 26.25Z" fill="#FB6231"/>
  </symbol>

  <symbol id="logo-orange" xmlns="http://www.w3.org/2000/svg" width="240" height="32" viewBox="0 0 240 32" fill="none">
    <path d="M228.524 32C226.121 32 224.064 31.526 222.353 30.578C220.642 29.6205 219.33 28.2896 218.417 26.5852C217.504 24.8713 217.048 22.8845 217.048 20.6247C217.048 18.365 217.504 16.383 218.417 14.6786C219.33 12.9647 220.642 11.6337 222.353 10.6858C224.064 9.72827 226.121 9.24951 228.524 9.24951C230.927 9.24951 232.984 9.72827 234.694 10.6858C236.405 11.6337 237.717 12.9647 238.63 14.6786C239.543 16.383 240 18.365 240 20.6247C240 22.8845 239.543 24.8713 238.63 26.5852C237.717 28.2896 236.405 29.6205 234.694 30.578C232.984 31.526 230.927 32 228.524 32ZM228.581 26.14C229.254 26.14 229.836 25.915 230.326 25.4649C230.816 25.0149 231.196 24.3734 231.465 23.5403C231.734 22.7073 231.869 21.7163 231.869 20.5673C231.869 19.4087 231.734 18.4177 231.465 17.5942C231.196 16.7612 230.816 16.1196 230.326 15.6696C229.836 15.2196 229.254 14.9946 228.581 14.9946C227.87 14.9946 227.26 15.2196 226.75 15.6696C226.241 16.1196 225.852 16.7612 225.583 17.5942C225.314 18.4177 225.179 19.4087 225.179 20.5673C225.179 21.7163 225.314 22.7073 225.583 23.5403C225.852 24.3734 226.241 25.0149 226.75 25.4649C227.26 25.915 227.87 26.14 228.581 26.14Z" fill="#FB6231"/>
    <path d="M202.954 32C200.589 32 198.552 31.5499 196.841 30.6499C195.139 29.7402 193.828 28.438 192.905 26.7432C191.992 25.0389 191.535 22.9994 191.535 20.6247C191.535 18.3459 191.997 16.3542 192.919 14.6499C193.842 12.9455 195.144 11.6193 196.826 10.6714C198.508 9.72348 200.493 9.24951 202.781 9.24951C204.453 9.24951 205.967 9.50804 207.322 10.0251C208.677 10.5421 209.836 11.2938 210.797 12.28C211.758 13.2567 212.498 14.444 213.017 15.842C213.536 17.2399 213.796 18.815 213.796 20.5673V22.4057H194.015V18.0395H206.472C206.462 17.4075 206.298 16.8521 205.981 16.3734C205.674 15.8851 205.256 15.5068 204.727 15.2387C204.208 14.9611 203.617 14.8222 202.954 14.8222C202.31 14.8222 201.719 14.9611 201.18 15.2387C200.642 15.5068 200.21 15.8803 199.883 16.359C199.566 16.8378 199.397 17.3979 199.378 18.0395V22.7504C199.378 23.459 199.527 24.0909 199.825 24.6463C200.123 25.2016 200.551 25.6373 201.108 25.9533C201.666 26.2693 202.339 26.4272 203.127 26.4272C203.675 26.4272 204.174 26.3506 204.626 26.1974C205.087 26.0442 205.482 25.824 205.808 25.5368C206.135 25.2399 206.375 24.8857 206.529 24.4739H213.796C213.546 26.0059 212.955 27.3369 212.022 28.4667C211.09 29.587 209.855 30.4584 208.317 31.0807C206.789 31.6935 205.001 32 202.954 32Z" fill="#FB6231"/>
    <path d="M173.379 31.8851C171.803 31.8851 170.351 31.4733 169.025 30.6499C167.708 29.8264 166.651 28.5769 165.853 26.9012C165.065 25.2256 164.671 23.1143 164.671 20.5673C164.671 17.9054 165.084 15.7414 165.911 14.0754C166.747 12.4093 167.824 11.1885 169.14 10.4129C170.467 9.63732 171.86 9.24953 173.321 9.24953C174.417 9.24953 175.378 9.44103 176.205 9.82404C177.031 10.1975 177.724 10.7002 178.281 11.3321C178.838 11.9545 179.261 12.6391 179.55 13.386H179.665V2.18311H187.623V31.5978H179.723V27.9784H179.55C179.242 28.7253 178.8 29.3955 178.223 29.9892C177.656 30.5733 176.964 31.0377 176.147 31.3824C175.34 31.7175 174.417 31.8851 173.379 31.8851ZM176.32 25.7953C177.051 25.7953 177.675 25.5847 178.194 25.1633C178.723 24.7325 179.127 24.1292 179.406 23.3537C179.694 22.5685 179.838 21.6397 179.838 20.5673C179.838 19.4757 179.694 18.5422 179.406 17.7666C179.127 16.9814 178.723 16.383 178.194 15.9713C177.675 15.5499 177.051 15.3393 176.32 15.3393C175.59 15.3393 174.965 15.5499 174.446 15.9713C173.937 16.383 173.542 16.9814 173.264 17.7666C172.995 18.5422 172.86 19.4757 172.86 20.5673C172.86 21.6589 172.995 22.5972 173.264 23.3824C173.542 24.158 173.937 24.7564 174.446 25.1777C174.965 25.5894 175.59 25.7953 176.32 25.7953Z" fill="#FB6231"/>
    <path d="M152.538 31.5978V9.5368H160.496V31.5978H152.538ZM156.517 7.23878C155.441 7.23878 154.518 6.8845 153.749 6.17594C152.98 5.46738 152.595 4.6152 152.595 3.61939C152.595 2.62358 152.98 1.77139 153.749 1.06283C154.518 0.354278 155.441 0 156.517 0C157.603 0 158.526 0.354278 159.285 1.06283C160.054 1.77139 160.439 2.62358 160.439 3.61939C160.439 4.6152 160.054 5.46738 159.285 6.17594C158.526 6.8845 157.603 7.23878 156.517 7.23878Z" fill="#FB6231"/>
    <path d="M149.462 9.53687L142.023 31.5979H132.796L125.357 9.53687H133.719L137.294 24.1293H137.525L141.1 9.53687H149.462Z" fill="#FB6231"/>
    <path d="M100.075 8.61757V2.18311H125.738V8.61757H116.857V31.5978H108.956V8.61757H100.075Z" fill="#FB6231"/>
    <path d="M95.4494 16.8905V22.8654H81.6087V16.8905H95.4494Z" fill="#FB6231"/>
    <path d="M68.0987 21.9462V9.53687H76.0571V31.5979H68.5024V27.404H68.2717C67.7911 28.8115 66.9501 29.9127 65.7487 30.7074C64.5472 31.4926 63.1199 31.8852 61.4667 31.8852C59.9193 31.8852 58.564 31.5309 57.401 30.8223C56.2476 30.1138 55.349 29.1371 54.705 27.8923C54.0706 26.6476 53.7486 25.2209 53.739 23.6123V9.53687H61.6974V21.9462C61.707 23.0378 61.9857 23.8947 62.5336 24.5171C63.0911 25.1395 63.8696 25.4507 64.8692 25.4507C65.5324 25.4507 66.1043 25.3118 66.5849 25.0342C67.0751 24.7469 67.4499 24.3448 67.7094 23.8277C67.9786 23.3011 68.1083 22.6739 68.0987 21.9462Z" fill="#FB6231"/>
    <path d="M38.2214 32C35.8185 32 33.7616 31.526 32.0507 30.578C30.3399 29.6205 29.0279 28.2896 28.1148 26.5852C27.2017 24.8713 26.7452 22.8845 26.7452 20.6247C26.7452 18.365 27.2017 16.383 28.1148 14.6786C29.0279 12.9647 30.3399 11.6337 32.0507 10.6858C33.7616 9.72827 35.8185 9.24951 38.2214 9.24951C40.6242 9.24951 42.6811 9.72827 44.392 10.6858C46.1028 11.6337 47.4148 12.9647 48.3279 14.6786C49.241 16.383 49.6976 18.365 49.6976 20.6247C49.6976 22.8845 49.241 24.8713 48.3279 26.5852C47.4148 28.2896 46.1028 29.6205 44.392 30.578C42.6811 31.526 40.6242 32 38.2214 32Z" fill="#FB6231"/>
    <path d="M0 2.18311H8.93875L14.7057 14.1328H14.9364L20.7033 2.18311H29.642L18.8002 22.3483V31.5978H10.8418V22.3483L0 2.18311Z" fill="#FB6231"/>
    <path d="M46.2295 21L34.4262 27.9282V14.0718L46.2295 21Z" fill="white"/>
  </symbol>

  <symbol id="star-ob" width="20" height="20" viewBox="0 0 20 20" fill="none" xmlns="http://www.w3.org/2000/svg">
    <path d="M11.4417 2.92495L12.9084 5.85828C13.1084 6.26662 13.6417 6.65828 14.0917 6.73328L16.75 7.17495C18.45 7.45828 18.85 8.69162 17.625 9.90828L15.5584 11.975C15.2084 12.325 15.0167 13 15.125 13.4833L15.7167 16.0416C16.1834 18.0666 15.1084 18.85 13.3167 17.7916L10.825 16.3166C10.375 16.05 9.63338 16.05 9.17505 16.3166L6.68338 17.7916C4.90005 18.85 3.81671 18.0583 4.28338 16.0416L4.87505 13.4833C4.98338 13 4.79171 12.325 4.44171 11.975L2.37505 9.90828C1.15838 8.69162 1.55005 7.45828 3.25005 7.17495L5.90838 6.73328C6.35005 6.65828 6.88338 6.26662 7.08338 5.85828L8.55005 2.92495C9.35005 1.33328 10.65 1.33328 11.4417 2.92495Z" stroke="#292D32" stroke-linecap="round" stroke-linejoin="round"/>
  </symbol>

  <symbol id="star-ow" width="18" height="18" viewBox="0 0 18 18" fill="none" xmlns="http://www.w3.org/2000/svg">
  <path d="M10.4417 1.92495L11.9083 4.85828C12.1083 5.26662 12.6417 5.65828 13.0917 5.73328L15.75 6.17495C17.45 6.45828 17.85 7.69162 16.625 8.90828L14.5583 10.975C14.2083 11.325 14.0167 12 14.125 12.4833L14.7167 15.0416C15.1833 17.0666 14.1083 17.85 12.3167 16.7916L9.82499 15.3166C9.37499 15.05 8.63332 15.05 8.17499 15.3166L5.68332 16.7916C3.89999 17.85 2.81665 17.0583 3.28332 15.0416L3.87499 12.4833C3.98332 12 3.79165 11.325 3.44165 10.975L1.37499 8.90828C0.158319 7.69162 0.549985 6.45828 2.24999 6.17495L4.90832 5.73328C5.34999 5.65828 5.88332 5.26662 6.08332 4.85828L7.54999 1.92495C8.34999 0.333284 9.64998 0.333284 10.4417 1.92495Z" stroke="white" stroke-linecap="round" stroke-linejoin="round"/>
  </symbol>

  <symbol id="star-bw" width="20" height="20" viewBox="0 0 20 20" fill="none" xmlns="http://www.w3.org/2000/svg">
    <path d="M11.4416 2.925L12.9083 5.85833C13.1083 6.26667 13.6416 6.65833 14.0916 6.73333L16.7499 7.175C18.4499 7.45833 18.8499 8.69167 17.6249 9.90833L15.5583 11.975C15.2083 12.325 15.0166 13 15.1249 13.4833L15.7166 16.0417C16.1833 18.0667 15.1083 18.85 13.3166 17.7917L10.8249 16.3167C10.3749 16.05 9.63326 16.05 9.17492 16.3167L6.68326 17.7917C4.89992 18.85 3.81659 18.0583 4.28326 16.0417L4.87492 13.4833C4.98326 13 4.79159 12.325 4.44159 11.975L2.37492 9.90833C1.15826 8.69167 1.54992 7.45833 3.24992 7.175L5.90826 6.73333C6.34992 6.65833 6.88326 6.26667 7.08326 5.85833L8.54992 2.925C9.34992 1.33333 10.6499 1.33333 11.4416 2.925Z" fill="white" stroke="#151515" stroke-linecap="round" stroke-linejoin="round"/>
  </symbol>


  <symbol id="star" width="20" height="20" viewBox="0 0 20 20" fill="none" xmlns="http://www.w3.org/2000/svg">
    <path d="M11.4417 2.92501L12.9084 5.85835C13.1084 6.26668 13.6417 6.65835 14.0917 6.73335L16.75 7.17501C18.45 7.45835 18.85 8.69168 17.625 9.90835L15.5584 11.975C15.2084 12.325 15.0167 13 15.125 13.4833L15.7167 16.0417C16.1834 18.0667 15.1084 18.85 13.3167 17.7917L10.825 16.3167C10.375 16.05 9.63338 16.05 9.17505 16.3167L6.68338 17.7917C4.90005 18.85 3.81671 18.0583 4.28338 16.0417L4.87505 13.4833C4.98338 13 4.79171 12.325 4.44171 11.975L2.37505 9.90835C1.15838 8.69168 1.55005 7.45835 3.25005 7.17501L5.90838 6.73335C6.35005 6.65835 6.88338 6.26668 7.08338 5.85835L8.55005 2.92501C9.35005 1.33335 10.65 1.33335 11.4417 2.92501Z" fill="#FF6A00" stroke="white" stroke-linecap="round" stroke-linejoin="round"/>
  </symbol>


  <symbol id="search" width="20" height="20" viewBox="0 0 20 20" fill="none" xmlns="http://www.w3.org/2000/svg">
    <path d="M9.66671 16C13.1645 16 16 13.1644 16 9.66665C16 6.16884 13.1645 3.33331 9.66671 3.33331C6.1689 3.33331 3.33337 6.16884 3.33337 9.66665C3.33337 13.1644 6.1689 16 9.66671 16Z" stroke="white" stroke-width="1.5" stroke-linecap="round" stroke-linejoin="round"/>
    <path d="M16.6667 16.6666L15.3334 15.3333" stroke="white" stroke-width="1.5" stroke-linecap="round" stroke-linejoin="round"/>
  </symbol>

</svg>